<?xml version="1.0"?>
<svg xmlns="http://www.w3.org/2000/svg" version="1.2" baseProfile="tiny" width="800" height="669" viewBox="0 0 800 669" stroke-linecap="round" stroke-linejoin="round">
<g id="carte">
<path d="M 697.72 539.02 695.11 545.79 677.93 547.7 659.44 541.69 634.01 546.03 631.97 532.97 623.13 527.31 624.56 517.95 635.33 510.74 623.17 498.65 629.46 491.31 632.52 498.15 680.63 502.55 695.18 495.61 709.85 492.76 728.94 495.27 741.69 500.16 733.48 506.7 728.44 520.12 720.09 524.32 730.82 533.83 715.95 531.39 697.72 539.02 Z" id="0"/>
<path d="M 55.48 286.51 40.89 295.84 57.25 302.54 62.75 296.73 75.45 304.5 82.05 324.8 78.42 332.37 67.24 338.68 52.19 340.91 30.92 350.95 9.82 352.54 1 343.05 10.64 339.98 19.74 321.09 2.67 315.98 14.26 308.59 9.1 298.43 35.17 299.46 40.57 292.6 29.07 292.1 38.11 283.54 64.53 281.12 55.48 286.51 Z" id="0"/>
<path d="M 635.06 217.02 641.57 219.84 619.92 225.53 612.96 218.79 635.06 217.02 Z M 718.6 237.27 709.08 235.46 697.92 235.68 678.85 226.81 660.31 230.86 664.98 222.62 649.93 221.8 644.98 205 687.1 196.71 734.27 202.18 719.54 213.52 727.14 230.68 718.6 237.27 Z" fill-rule="evenodd" id="0"/>
<path d="M 519.81 407.28 524.01 418.85 521.86 424.63 512.36 423.74 511.5 438.02 503.9 440.64 480.23 445.48 474.02 449.45 458.27 447.18 455.21 446.62 436.07 444.6 428.09 438.78 396.35 440.6 379.71 436.93 379.32 427.9 390.67 432.91 395.64 427.07 412.08 429.97 439.52 425.11 440.15 417.58 460.33 406.82 475.36 407.11 483.19 399.66 519.81 407.28 Z" id="0"/>
<path d="M 733.73 1.29 755.26 9.24 739.29 27.6 743.85 34.06 769.25 43.57 751.22 57.6 771.07 82.27 761.47 89.67 769.73 106.29 780.05 113.12 768.77 119.17 799 134.71 792.57 142.55 762.67 161.04 725.58 180.53 685.82 183.41 643.52 191.22 603.94 177.82 607.67 165.31 599.05 137.6 606.49 129.42 622.6 127.86 627.4 119.82 641.32 115.98 664.64 98.71 681.92 95.7 680.11 85.85 658.61 80.23 647.8 67.1 654.45 60.62 643.46 47.94 647.61 38.61 595.74 19.19 610.1 13.25 623.76 24.19 651.06 21.92 674.83 25.9 687.88 18.89 701.02 1 733.73 1.29 Z" id="0"/>
<path d="M 376.81 520.54 378.71 531.54 372.54 545.53 360.11 529.26 362.99 522.53 374.8 514.53 376.81 520.54 Z M 247.23 365.39 276.11 375.55 281.7 382.12 307.43 389.63 316.87 390.93 318 391.26 325.11 396.87 353.54 400.7 341.2 416.8 341.38 427.01 329.62 432.59 313.58 445.91 326.19 448.94 330.89 458.52 326.62 462.52 332.55 471.42 322.91 474.19 330.77 479.5 330.76 490.64 343.68 493.61 340.23 499.38 323.23 508.49 310.25 512.16 298.96 510.19 296.36 504.96 287.6 507.39 273.92 503.7 256.59 511.77 257.28 525.16 235.29 526.77 222.61 519.85 196.59 520.43 168.62 512.68 162.74 507.56 169.17 502.21 173.65 483.42 176.34 458.96 173.43 451.69 162.63 447.91 158.86 437.55 145.14 425.99 136.93 427.01 107.03 417.77 110.1 406.97 137.12 402.59 145.5 409.52 152.7 406.19 170.6 406.81 161.15 387.49 172.13 386.78 175.46 393.05 192.34 394.61 203.72 391.64 199.93 386.88 225.4 377.1 227.68 364.21 245.16 360.15 247.23 365.39 Z" fill-rule="evenodd" id="0"/>
<path d="M 460.33 406.82 440.15 417.58 439.52 425.11 412.08 429.97 395.64 427.07 390.67 432.91 379.32 427.9 359.9 422.78 357.54 427.21 341.38 427.01 341.2 416.8 353.54 400.7 325.11 396.87 318 391.26 317.89 389.99 321.1 384.6 313.66 378.51 318.22 372.5 311.32 366.51 308.56 360.97 315.05 352.16 310.38 346.48 326.14 344.19 331.18 338.28 334.14 319.12 334.69 310.99 349.8 310.43 353.97 316.08 366.66 306.04 368.62 295.18 360.3 288.14 385.78 289.6 389.79 295.35 414.3 306.21 434.38 297.14 445.02 297.06 468.89 310.42 466.48 326.37 475.86 331.95 475.06 346.28 483.44 356.7 478.92 365.34 469.57 364.13 435.39 373.44 438.36 391.91 456.51 400.91 460.33 406.82 Z" id="0"/>
<path d="M 651.61 657.01 660.4 660.25 698.18 661.56 696.96 666.31 668.66 668.06 661.65 663.32 645.17 661.46 651.61 657.01 Z M 726.5 649.98 725.23 644.72 735.11 639.67 726.5 649.98 Z M 644.04 593.48 657.24 597.42 659.02 605.33 647.48 601.77 644.04 593.48 Z M 699.63 585.47 698.61 591.11 689.67 585.92 699.63 585.47 Z M 634.01 546.03 659.44 541.69 677.93 547.7 695.11 545.79 697.72 539.02 703.95 546.27 694.91 557.21 674.05 552.47 648.4 558.79 654.16 572.48 647.42 567.18 627.27 562.79 627.02 570.53 641.26 587.86 627.21 594.01 655.71 606 654.88 616.39 645.96 610.38 635.56 611.21 638.33 617.06 630.63 621.04 637.41 633.12 634.72 637.99 627.09 633.13 625.49 640.53 619.15 628.45 613.91 634.15 608.2 627.66 608.17 618.7 599.13 612.53 604.43 605.72 613.47 603.26 629.93 608.92 639.4 607.79 623.81 601.26 599.92 603.95 581.63 578.88 590.88 569.69 596.79 555.3 608.54 554.98 615.8 550.01 634.01 546.03 Z" fill-rule="evenodd" id="0"/>
<path d="M 513.19 448.16 528.26 458.4 558.18 461.44 559.72 478.93 551.99 474.7 537.08 475.34 519.19 471.22 508.57 476.12 497.59 473.2 496.75 479.86 506.52 491.6 526.52 509.07 503.98 505.33 485.59 491.61 479.7 474.16 469.91 469.53 461.96 480.66 457.51 467.8 474.41 463.61 486.03 468.17 494.53 460.23 495.6 452.9 513.19 448.16 Z" id="0"/>
<path d="M 455.21 446.62 458.27 447.42 458.24 464.92 448.7 461.47 428.57 471.25 435.77 477.12 430.18 481.7 432.52 490.65 456.46 503.9 463.35 519.87 477.74 531.86 485.96 534.95 502.11 534.49 501.54 544.21 540.12 559.33 549.67 569.01 547.35 575.16 537.14 566.18 519.19 563.13 511.26 575.04 523.71 583.25 524.06 591.39 513.61 594.08 512.75 601.32 502.96 611.2 495.35 610.49 498.49 597.92 505.89 592.08 494.37 570.3 481.31 566.45 477.83 558.72 465.04 555.95 458.07 547.73 446.64 548.02 436.48 542.88 418.31 527.73 398.59 515.23 389.41 495.21 363.41 487.19 352.39 496.21 340.23 499.38 343.68 493.61 330.76 490.64 330.77 479.5 322.91 474.19 332.55 471.42 326.62 462.52 330.89 458.52 346.48 458.76 354.95 449.22 367.37 460.17 373.96 447.61 378.64 451.37 395.94 446.94 396.35 440.6 428.09 438.78 436.07 444.6 455.21 446.62 Z M 378.09 549.76 384.04 561.67 378.24 588.43 368.65 585.61 365.24 593.01 356.94 591.43 359.85 574.17 352.9 554.2 363.85 554.23 372.74 547.7 378.09 549.76 Z M 492.78 607.14 484.49 622.29 488.74 628.65 485.29 634.82 472.41 632.05 433.6 613.77 446.56 606.19 458.13 610.2 470.69 609.4 492.37 604.21 492.78 607.14 Z" fill-rule="evenodd" id="0"/>
<path d="M 660.31 230.86 678.85 226.81 697.92 235.68 709.08 235.46 718.6 237.27 727.69 241.5 724.88 249.11 735.1 261.54 722.92 270.52 704.13 272.75 671.07 258 663.45 261.41 625.35 258.8 605.26 261.94 598.09 265.08 598.44 250.42 611.08 236.48 627.68 233.04 646.41 247.93 661.28 243.41 660.31 230.86 Z" id="0"/>
<path d="M 704.13 272.75 687.4 289.72 684.01 298.64 669.95 305.12 644.85 305.69 629.41 295.66 632.23 287.58 600.66 278.88 598.09 265.08 605.26 261.94 625.35 258.8 663.45 261.41 671.07 258 704.13 272.75 Z" id="0"/>
<path d="M 524.01 418.85 519.81 407.28 534.41 402.76 550.98 390.53 567.51 388.56 579.74 396.51 608.9 391.7 626.81 398.5 619.06 411.23 605.32 408.1 588.33 408.85 576.28 416.6 556.09 418.11 552.78 423.61 535.9 423.93 524.01 418.85 Z" id="0"/>
<path d="M 277.78 354.73 290.7 354.28 307.94 358.72 311.32 366.51 318.22 372.5 313.66 378.51 307.43 389.63 281.7 382.12 276.11 375.55 247.23 365.39 245.16 360.15 261.02 355.97 275.4 356.57 277.78 354.73 Z" id="0"/>
<path d="M 313.66 378.51 321.1 384.6 317.89 389.99 316.87 390.93 307.43 389.63 313.66 378.51 Z" id="0"/>
<path d="M 334.14 319.12 331.18 338.28 326.14 344.19 310.38 346.48 315.05 352.16 308.56 360.97 311.32 366.51 307.94 358.72 290.7 354.28 277.78 354.73 262.3 351.75 274.13 345.48 284.11 334.02 300.24 338.07 304.94 326.98 292.57 335.65 284.02 333.82 290.94 325.56 309.02 316.46 325.24 314.87 334.14 319.12 Z" id="0"/>
<path d="M 54.99 623.99 48.77 628.15 25.27 628.18 28.99 620.38 29.5 599.89 21.59 601.75 15.86 596.22 18.28 583.73 23.46 578.96 31.84 552.61 29.96 534.39 40.32 530.57 41.04 536.97 70.97 534.37 78.72 541.5 64.57 552.3 66.97 554.95 62.9 577.82 53.07 577.92 64.05 590.31 57.1 601.18 63.1 609.22 53.23 618.29 54.99 623.99 Z" id="0"/>
<path d="M 458.27 447.18 474.02 449.45 480.23 445.48 503.9 440.64 513.19 448.16 495.6 452.9 494.53 460.23 486.03 468.17 474.41 463.61 457.51 467.8 458.24 464.92 458.27 447.42 458.27 447.18 Z" id="0"/>
<path d="M 258.62 576.68 254.98 585.67 242.19 579 255.26 573.11 258.62 576.68 Z M 162.74 507.56 168.62 512.68 196.59 520.43 222.61 519.85 235.29 526.77 257.28 525.16 257.74 535.53 237.68 546.67 216.51 551.36 210.12 556.12 190.25 582.38 200.65 595.79 186.94 603.56 180.35 615.25 164.49 622.29 156.34 633.86 112.15 634.55 98.08 640.02 89.66 647.77 81.32 644.23 75.51 631.47 54.99 623.99 53.23 618.29 63.1 609.22 57.1 601.18 64.05 590.31 53.07 577.92 62.9 577.82 66.97 554.95 64.57 552.3 78.72 541.5 70.97 534.37 41.04 536.97 40.32 530.57 29.96 534.39 30.4 520.12 25.18 523.33 21.15 511.42 37.87 506.72 46.1 499.85 58.64 503.76 88.44 504.05 116.37 506.84 129.08 504.78 136.62 507.68 162.74 507.56 Z" fill-rule="evenodd" id="0"/>
</g>
</svg>